<?xml version="1.0" encoding="UTF-8"?>
<!DOCTYPE svg PUBLIC "-//W3C//DTD SVG 1.1//EN" "http://www.w3.org/Graphics/SVG/1.1/DTD/svg11.dtd">
<!-- Creator: CorelDRAW X6 -->
<svg xmlns="http://www.w3.org/2000/svg" xml:space="preserve" width="70mm" height="119.444mm" version="1.1" style="shape-rendering:geometricPrecision; text-rendering:geometricPrecision; image-rendering:optimizeQuality; fill-rule:evenodd; clip-rule:evenodd"
viewBox="0 0 7000 11944"
 xmlns:xlink="http://www.w3.org/1999/xlink">
 <defs>
  <style type="text/css">
   <![CDATA[
    .fil7 {fill:#0077BD}
    .fil0 {fill:#373435}
    .fil3 {fill:#A9ABAE}
    .fil5 {fill:#D2D3D5}
    .fil2 {fill:#ED3237}
    .fil4 {fill:#FFF212}
    .fil6 {fill:#FEFEFE}
    .fil1 {fill:#195FAA}
    .fil8 {fill:black;fill-rule:nonzero}
   ]]>
  </style>
 </defs>
 <g id="Camada_x0020_1">
  <metadata id="CorelCorpID_0Corel-Layer"/>
  <g id="_143264120">
   <path class="fil0" d="M5194 8351l0 211c399,23 728,0 1009,-70 -329,-188 -775,23 -1009,-141zm-2856 -6737c117,23 164,141 94,235 117,70 141,305 -23,399 88,66 52,215 -88,252l-27 159 -14 317 743 0 -47 -470c-141,-47 -164,-164 -94,-235 -164,-117 -141,-352 0,-446 -47,-94 -23,-164 70,-211l1127 0c94,23 141,141 70,235 117,70 141,305 0,399 70,70 24,235 -117,258l-23 470 692 0 -26 -482c-98,-53 -133,-158 -68,-223 -164,-117 -141,-352 0,-446 -47,-94 0,-164 94,-211l1080 0c94,23 141,141 70,235 117,70 141,305 0,399 70,70 47,235 -117,258l-27 470 233 0 -252 3920c282,23 634,-305 1033,117 -164,211 -282,399 -305,563 446,47 657,352 563,610l-446 962c-188,305 -493,376 -868,399 -164,0 -305,0 -446,-23 -23,117 -94,188 -164,258 23,141 -94,188 -164,188 -47,0 -188,-47 -141,-188 -70,-70 -141,-188 -164,-329 -258,-23 -469,-47 -728,-47 -24,164 -94,282 -188,376 0,0 0,23 0,23 0,94 -70,164 -164,164l0 0c-70,0 -141,-70 -141,-164 0,0 0,-23 0,-23 -117,-94 -188,-211 -188,-376 -258,0 -493,23 -728,47 -23,141 -94,258 -188,329 47,141 -94,188 -164,188 -47,0 -164,-47 -141,-188 -70,-70 -141,-141 -164,-258 -141,23 -282,23 -446,23 -376,-23 -681,-94 -868,-399l-446 -962c-117,-258 117,-563 563,-610 -23,-164 -164,-352 -329,-563 423,-423 751,-94 1056,-117l-250 -3920 215 0 -4 -288 -47 -182c-117,-47 -141,-164 -70,-235 -164,-117 -141,-352 0,-446 -70,-94 -23,-164 70,-211l1103 0zm2292 6643c-305,117 -775,70 -822,188 282,0 540,47 822,70l0 -258zm-2230 -23c305,94 775,94 821,211 -282,0 -540,47 -821,70l0 -282zm-587 117l0 211c-399,23 -728,0 -1009,-70 329,-188 775,23 1009,-141z"/>
   <path class="fil1" d="M6321 7576c-235,-23 -470,70 -681,-141 23,-164 23,-305 47,-469 282,23 610,-235 915,70 -117,164 -235,352 -282,540zm-2823 986c1129,-68 2281,328 3316,-187l-354 728c-352,701 -1942,146 -2956,210l0 1 -6 0 -7 0 0 -1c-987,-65 -2594,491 -2945,-210l-352 -728c1031,515 2202,119 3303,187zm-2810 -986c211,-23 470,70 681,-141 -23,-164 -23,-305 -47,-469 -305,23 -610,-235 -939,70 141,164 258,352 305,540z"/>
   <path class="fil2" d="M2354 1614l-1103 0c-141,-141 -188,-282 -188,-423 0,-399 305,-516 587,-681 164,-70 211,-235 352,-376 164,-117 376,-164 587,-117 -493,282 47,798 -798,869 352,117 657,-47 728,-446 47,94 94,282 94,376 0,117 -164,188 -141,329 24,164 47,305 -117,470zm3427 0l-1080 0c-141,-141 -211,-282 -211,-423 0,-399 282,-516 587,-681 164,-70 188,-235 352,-376 141,-117 376,-164 563,-117 -493,282 70,798 -775,869 329,117 634,-47 704,-446 70,94 117,282 94,376 0,117 -141,188 -117,329 23,164 47,305 -117,470zm-1690 0l-1127 0c-117,-141 -188,-282 -188,-423 0,-399 305,-516 610,-681 141,-70 188,-235 329,-376 164,-117 376,-164 587,-117 -493,282 47,798 -775,869 329,117 634,-47 704,-446 70,94 94,282 94,376 0,117 -164,188 -141,329 23,164 47,305 -94,470z"/>
   <path class="fil3" d="M3903 2976l-141 0 0 -282c0,-47 23,-70 70,-70l0 0c47,0 70,23 70,70l0 282zm-2605 -1150l986 0c47,0 70,-23 70,-70l0 0c0,-47 -23,-70 -70,-70l-986 0c-47,0 -70,24 -70,70l0 0c0,47 23,70 70,70zm1713 0l986 0c47,0 70,-23 70,-70l0 0c0,-47 -23,-70 -70,-70l-986 0c-23,0 -70,24 -70,70l0 0c0,47 47,70 70,70zm1714 0l986 0c23,0 70,-23 70,-70l0 0c0,-47 -47,-70 -70,-70l-986 0c-23,0 -47,24 -47,70l0 0c0,47 24,70 47,70zm0 587l986 0c23,0 70,-23 70,-70l0 0c0,-23 -47,-70 -70,-70l-986 0c-23,0 -47,47 -47,70l0 0c0,47 24,70 47,70zm-1714 0l986 0c47,0 70,-23 70,-70l0 0c0,-23 -23,-70 -70,-70l-986 0c-23,0 -70,47 -70,70l0 0c0,47 47,70 70,70zm-1713 0l986 0c47,0 70,-23 70,-70l0 0c0,-23 -23,-70 -70,-70l-986 0c-47,0 -70,47 -70,70l0 0c0,47 23,70 70,70zm892 563l-164 0 0 -282c0,-47 47,-70 94,-70l0 0c24,0 70,23 70,70l0 282zm-329 0l-141 0 0 -282c0,-47 23,-70 70,-70l0 0c47,0 70,23 70,70l0 282zm-305 0l-164 0 0 -282c0,-47 47,-70 70,-70l0 0c47,0 94,23 94,70l0 282zm1713 0l-141 0 0 -282c0,-47 23,-70 70,-70l0 0c47,0 70,23 70,70l0 282zm329 0l-164 0 0 -282c0,-47 47,-70 70,-70l0 0c47,0 94,23 94,70l0 282zm1358 0l-141 0 4 -282c0,-47 23,-70 70,-70l0 0c47,0 70,23 70,70l-4 282zm329 0l-164 0 4 -282c0,-47 47,-70 94,-70l0 0c23,0 70,23 70,70l-4 282zm305 0l-141 0 4 -282c0,-47 23,-70 70,-70l0 0c47,0 70,23 70,70l-4 282z"/>
   <path class="fil4" d="M2260 229c-164,47 -211,211 -329,329 -94,94 -282,117 -399,164 -211,117 -376,235 -399,423 0,70 23,188 94,258 47,-164 -117,-235 23,-399 -23,164 117,117 141,352 23,-70 0,-188 117,-211 -47,141 47,329 117,329 94,23 117,-70 188,-70 47,0 117,47 188,47 47,-24 94,-141 188,-188 0,188 -94,305 -188,329 -117,24 -117,-47 -188,-47 -70,0 -70,47 -188,47 -70,0 -117,-23 -188,-70 24,23 47,47 70,70 211,0 446,0 681,0 0,-70 94,-117 117,-235 23,-117 -24,-117 23,-282 23,-70 141,-94 117,-282 -23,94 -117,141 -211,164 -117,47 -211,188 -235,258 -70,-23 -47,-117 -117,-117 -70,23 -47,70 -117,94 -47,-24 -23,-94 -47,-117 -47,0 -70,24 -117,70 -23,-47 47,-117 23,-164 0,-47 -70,-23 -164,47 47,-282 516,-164 681,-399 117,-117 0,-282 117,-399zm3427 0c-164,47 -235,211 -329,329 -117,94 -282,117 -399,164 -211,117 -352,235 -376,423 -23,70 24,188 94,258 24,-164 -117,-235 24,-399 -47,164 94,117 94,352 47,-70 23,-188 117,-211 -23,141 47,329 117,329 117,23 141,-70 211,-70 47,0 117,47 164,47 70,-24 117,-141 211,-188 0,188 -94,305 -211,329 -94,24 -94,-47 -188,-47 -47,0 -70,47 -188,47 -47,0 -117,-23 -164,-70 23,23 23,47 47,70 235,0 470,0 681,0 24,-70 117,-117 141,-235 23,-117 -47,-117 0,-282 23,-70 141,-94 141,-282 -47,94 -117,141 -211,164 -141,47 -211,188 -235,258 -94,-23 -47,-117 -141,-117 -47,23 -47,70 -94,94 -70,-24 -47,-94 -70,-117 -24,0 -70,24 -94,70 -47,-47 23,-117 23,-164 -23,-47 -70,-23 -164,47 47,-282 493,-164 681,-399 94,-117 -23,-282 117,-399zm-1690 0c-188,47 -235,211 -329,329 -117,94 -282,117 -423,164 -211,117 -376,235 -376,423 -23,70 23,188 70,258 47,-164 -94,-235 47,-399 -47,164 94,117 117,352 47,-70 0,-188 117,-211 -23,141 47,329 117,329 117,23 117,-70 211,-70 23,0 117,47 164,47 70,-24 117,-141 188,-188 0,188 -70,305 -188,329 -117,24 -117,-47 -188,-47 -47,0 -70,47 -188,47 -47,0 -117,-23 -188,-70 24,23 47,47 70,70 235,0 446,0 681,0 0,-70 117,-117 141,-235 23,-117 -47,-117 0,-282 23,-70 141,-94 141,-282 -47,94 -117,141 -235,164 -117,47 -211,188 -211,258 -94,-23 -70,-117 -141,-117 -47,23 -47,70 -117,94 -47,-24 -23,-94 -47,-117 -23,0 -70,24 -94,70 -47,-47 23,-117 0,-164 0,-47 -47,-23 -141,47 47,-282 493,-164 681,-399 94,-117 -23,-282 117,-399z"/>
   <path class="fil5" d="M1345 2483l892 0 -24 117c-70,-94 -211,-47 -258,70 -47,-164 -258,-164 -329,0 -47,-141 -211,-141 -258,-70l-23 -117zm3427 -634l892 0c94,0 188,94 188,211l0 0c0,94 -94,188 -188,188l-892 0c-94,0 -188,-94 -188,-188l0 0c0,-117 94,-211 188,-211zm-3427 0l892 0c117,0 188,94 188,211l0 0c0,94 -70,188 -188,188l-892 0c-94,0 -188,-94 -188,-188l0 0c0,-117 94,-211 188,-211zm1714 0l892 0c117,0 211,94 211,211l0 0c0,94 -94,188 -211,188l-892 0c-94,0 -188,-94 -188,-188l0 0c0,-117 94,-211 188,-211zm1714 634l869 0 0 117c-70,-94 -235,-47 -282,70 -47,-164 -258,-164 -305,0 -47,-141 -235,-141 -282,-70l0 -117zm-1690 0l869 0 0 117c-94,-94 -235,-47 -282,70 -47,-164 -258,-164 -305,0 -70,-141 -235,-141 -282,-70l0 -117z"/>
   <path class="fil5" d="M1884 9525c141,-23 305,-47 469,-47 -23,94 -70,188 -117,235 -24,-23 -70,-70 -117,-70 -70,0 -117,47 -141,70 -47,-47 -70,-117 -94,-188zm-10 -1179c-2,-59 155,-106 177,-191 90,40 179,68 269,71l14 297 -452 21 -7 -198zm2822 -117c101,-19 185,-84 263,-110 44,76 109,137 160,198l0 238c-147,1 -275,-7 -422,-29l-2 -298zm428 1295c-164,-23 -305,-47 -446,-47 24,94 47,188 94,235 23,-23 70,-70 117,-70 47,0 94,47 141,70 23,-47 70,-117 94,-188zm-1361 -141c-173,0 -347,0 -520,0 0,141 56,258 141,329 88,-73 166,-78 251,0 77,-70 128,-188 128,-329z"/>
   <path class="fil6" d="M3269 6403c47,-47 47,-117 47,-188l-141 0c23,47 70,117 94,188zm3051 2066c-681,-329 -892,117 -1291,-376 258,-70 516,-282 610,-563 188,117 399,141 610,141 423,0 657,188 657,399 0,235 -329,352 -587,399zm-5634 0c657,-329 892,117 1291,-376 -258,-70 -540,-282 -610,-563 -188,117 -399,141 -610,141 -423,0 -681,188 -657,399 0,235 329,352 587,399zm4413 -3098c47,0 70,-23 70,-70 0,-47 -23,-70 -70,-70 -23,0 -70,24 -70,70 0,47 47,70 70,70zm0 -845c47,0 70,-47 70,-70 0,-47 -23,-70 -70,-70 -23,0 -70,24 -70,70 0,23 47,70 70,70zm0 -822c47,0 70,-47 70,-70 0,-47 -23,-70 -70,-70 -23,0 -70,23 -70,70 0,24 47,70 70,70zm376 2089c23,0 70,-23 70,-70 0,-47 -47,-70 -70,-70 -47,0 -70,24 -70,70 0,47 23,70 70,70zm0 -845c23,0 70,-47 70,-70 0,-47 -47,-70 -70,-70 -47,0 -70,24 -70,70 0,23 23,70 70,70zm0 -822c23,0 70,-47 70,-70 0,-47 -47,-70 -70,-70 -47,0 -70,23 -70,70 0,24 23,70 70,70zm0 -845c23,0 70,-47 70,-70 0,-47 -47,-70 -70,-70 -47,0 -70,23 -70,70 0,24 23,70 70,70zm-1127 1244c23,0 70,-47 70,-70 0,-47 -47,-70 -70,-70 -47,0 -70,24 -70,70 0,23 23,70 70,70zm0 -822c23,0 70,-47 70,-70 0,-47 -47,-70 -70,-70 -47,0 -70,23 -70,70 0,24 23,70 70,70zm352 1244c23,0 47,-47 47,-70 0,-47 -23,-70 -47,-70 -24,0 -70,24 -70,70 0,23 47,70 70,70zm0 -822c23,0 47,-47 47,-70 0,-47 -23,-70 -47,-70 -24,0 -70,23 -70,70 0,24 47,70 70,70zm0 -845c23,0 47,-47 47,-70 0,-47 -23,-70 -47,-70 -24,0 -70,23 -70,70 0,24 47,70 70,70zm-1150 423c47,0 70,-47 70,-70 0,-47 -23,-70 -70,-70 -23,0 -70,23 -70,70 0,24 47,70 70,70zm376 423c23,0 70,-47 70,-70 0,-47 -47,-70 -70,-70 -47,0 -70,23 -70,70 0,24 23,70 70,70zm-728 -845c23,0 70,-47 70,-70 0,-47 -47,-70 -70,-70 -47,0 -70,23 -70,70 0,24 23,70 70,70zm728 0c23,0 70,-47 70,-70 0,-47 -47,-70 -70,-70 -47,0 -70,23 -70,70 0,24 23,70 70,70zm70 5047c47,0 70,-23 70,-70 0,-47 -23,-70 -70,-70 -23,0 -70,23 -70,70 0,47 47,70 70,70zm0 -845c47,0 70,-23 70,-70 0,-47 -23,-70 -70,-70 -23,0 -70,23 -70,70 0,47 47,70 70,70zm-1197 -1268c24,0 70,-47 70,-70 0,-47 -47,-70 -70,-70 -47,0 -70,24 -70,70 0,23 24,70 70,70zm1573 1690c23,0 70,-23 70,-70 0,-47 -47,-70 -70,-70 -47,0 -70,23 -70,70 0,47 23,70 70,70zm-1150 423c24,0 70,-23 70,-70 0,-47 -47,-70 -70,-70 -47,0 -70,23 -70,70 0,47 24,70 70,70zm-1221 -423c47,0 70,-23 70,-70 0,-47 -24,-70 -70,-70 -23,0 -70,23 -70,70 0,47 47,70 70,70zm1197 -423c47,0 70,-23 70,-70 0,-47 -23,-70 -70,-70 -23,0 -70,23 -70,70 0,47 47,70 70,70zm-1197 -423c47,0 70,-47 70,-70 0,-47 -24,-70 -70,-70 -23,0 -70,23 -70,70 0,23 47,70 70,70zm0 -845c47,0 70,-47 70,-70 0,-47 -24,-70 -70,-70 -23,0 -70,24 -70,70 0,23 47,70 70,70zm0 -845c47,0 70,-47 70,-70 0,-47 -24,-70 -70,-70 -23,0 -70,24 -70,70 0,23 47,70 70,70zm1573 2535c47,0 70,-23 70,-70 0,-47 -23,-70 -70,-70 -23,0 -70,23 -70,70 0,47 47,70 70,70zm-1197 -423c24,0 70,-47 70,-70 0,-47 -47,-70 -70,-70 -47,0 -70,23 -70,70 0,23 23,70 70,70zm0 -845c24,0 70,-47 70,-70 0,-47 -47,-70 -70,-70 -47,0 -70,23 -70,70 0,23 23,70 70,70zm0 -845c24,0 70,-47 70,-70 0,-47 -47,-70 -70,-70 -47,0 -70,24 -70,70 0,23 23,70 70,70zm423 2113c24,0 70,-23 70,-70 0,-47 -47,-70 -70,-70 -47,0 -70,23 -70,70 0,47 24,70 70,70zm-1221 -423c47,0 70,-47 70,-70 0,-47 -24,-70 -70,-70 -23,0 -70,23 -70,70 0,23 47,70 70,70zm1221 -423c24,0 70,-23 70,-70 0,-47 -47,-70 -70,-70 -47,0 -70,23 -70,70 0,47 24,70 70,70zm-1221 -423c47,0 70,-47 70,-70 0,-47 -24,-70 -70,-70 -23,0 -70,23 -70,70 0,23 47,70 70,70zm0 -845c47,0 70,-47 70,-70 0,-47 -24,-70 -70,-70 -23,0 -70,24 -70,70 0,23 47,70 70,70zm0 -845c47,0 70,-47 70,-70 0,-47 -24,-70 -70,-70 -23,0 -70,24 -70,70 0,23 47,70 70,70zm1244 681c-70,-188 -141,-258 -305,-258 0,0 0,0 0,0 94,70 211,164 305,258zm-587 -751c-47,70 -94,141 -117,211 -70,-47 -141,-117 -188,-164 -305,-399 -235,-681 -704,-1103l-24 -258c141,117 258,235 376,352 235,282 329,634 516,845 47,47 94,94 141,117zm915 94c-23,-70 -23,-141 -23,-235 0,-23 0,-23 0,-47 -164,-141 -329,-258 -563,-470 -211,-188 -305,-587 -563,-892 -65,-97 -152,-183 -246,-258l-290 0c685,554 557,892 935,1314 141,188 446,352 751,587zm211 -1033c-47,70 -70,141 -117,211 -117,-70 -211,-141 -258,-211 -256,-320 -279,-563 -476,-868l229 0c151,254 243,514 410,681 70,70 141,141 211,188zm446 352c117,94 211,188 352,352 24,47 47,70 70,117 -70,0 -117,47 -164,94 -23,-23 -47,-47 -70,-94 -47,-47 -70,-94 -117,-141 0,-117 -23,-235 -70,-329zm751 1103c70,117 141,235 258,376 235,258 516,329 775,563l-23 258c-352,-376 -587,-329 -892,-704 -141,-164 -235,-329 -329,-493 47,-23 70,-23 117,-23 47,-23 70,0 94,23zm-872 1512c24,-23 47,-70 47,-117 47,23 94,23 141,23 211,164 426,248 660,483 258,305 282,540 446,704 -47,23 -94,47 -141,47 -23,24 -70,24 -94,47 -94,-164 -94,-352 -305,-587 -305,-376 -473,-365 -754,-600zm402 -855c-24,70 -70,117 -141,141 47,70 70,117 141,164 376,423 610,352 986,821 188,235 211,399 305,563 70,-70 117,-164 141,-258 -94,-141 -164,-329 -352,-516 -329,-352 -634,-399 -915,-704 -70,-94 -117,-141 -164,-211zm-352 -258c24,-23 47,-141 70,-258 -23,-47 -47,-94 -70,-141 -23,117 -70,188 -70,258 23,47 47,94 70,141z"/>
   <path class="fil4" d="M3504 6872c-94,0 -164,-70 -188,-164 -164,70 -305,-70 -282,-211 329,94 399,-141 352,-376l-188 0c-235,23 -235,-258 -282,-423 -47,-235 -188,-423 -376,-423 -70,0 -164,0 -258,141 -47,-94 -70,-164 -70,-235 0,-141 164,-376 376,-376 657,-23 376,1150 704,1103 352,-47 -47,-563 -70,-1127 -23,-423 211,-845 282,-939 94,94 305,516 305,939 -23,563 -446,1080 -94,1127 329,47 47,-1127 728,-1103 188,0 352,235 329,376 0,70 -24,141 -70,235 -70,-141 -164,-141 -235,-141 -188,0 -305,188 -376,423 -24,164 -47,446 -282,423l-164 0c-70,211 24,469 329,376 23,141 -94,282 -282,211 0,94 -94,164 -188,164z"/>
   <path class="fil6" d="M734 9125c0,0 -23,-23 -23,-23 0,-23 0,-23 23,-23 0,0 23,23 47,47 47,47 70,70 94,94 23,24 47,47 70,47 24,0 24,0 47,-23 0,0 0,0 0,-24 0,0 0,-23 0,-47 -23,-24 -23,-47 -47,-47 -23,-23 -23,-23 -47,-47 0,0 -23,0 -23,0 -24,-24 -47,-24 -70,-47 0,0 -23,0 -47,-23 0,0 -23,-23 -47,-23 -24,-24 -24,-24 -47,-47 -23,-23 -47,-47 -47,-70 -24,-23 -47,-47 -47,-70 -23,-23 -47,-70 -47,-94 0,-23 24,-47 47,-47 23,-24 47,-24 70,0 47,0 117,23 164,70 0,0 23,23 23,23 23,23 23,47 47,94 0,0 0,0 0,23 0,0 0,0 0,0 -24,0 -24,-23 -47,-47 -23,-24 -47,-47 -70,-70 -23,-23 -47,-23 -70,-47 -23,0 -47,0 -47,24 0,0 0,23 0,47 23,23 23,47 47,47 24,23 24,47 47,47 23,23 47,23 70,47 47,0 70,23 94,47 23,24 47,47 70,70 23,23 70,70 70,94 23,47 47,70 47,94 0,24 0,47 0,70 -23,23 -23,23 -47,47 -24,0 -24,0 -47,0 -23,-24 -70,-24 -94,-47 -47,-23 -70,-47 -94,-70 -23,-47 -47,-70 -70,-94 0,0 0,0 0,0zm399 -47c47,0 94,0 117,0 -23,-24 -47,-70 -70,-117 -23,-23 -70,-70 -94,-94 23,23 23,70 23,94 24,47 24,70 24,117zm23 70c0,24 23,47 47,117 0,0 0,0 0,23 0,0 24,0 24,0 0,0 0,23 23,23 0,0 0,0 0,0 0,24 0,24 0,24 0,0 0,0 0,0 -23,0 -47,0 -70,0 -23,0 -23,0 -23,-24 -23,0 -23,-23 -23,-23 0,0 0,0 0,0 0,0 23,-23 23,-23 0,0 -23,-23 -23,-23 0,-47 -24,-70 -24,-117 -23,-47 -23,-94 -47,-141 0,-47 0,-94 -23,-117 0,-47 0,-70 0,-94 0,-23 0,-23 0,-47 0,0 0,0 23,0 0,0 23,0 23,23 23,0 23,0 23,23 47,23 70,70 117,141 23,47 70,94 94,141 23,47 70,94 94,117 23,47 47,70 47,94 0,0 23,23 23,23 0,0 0,0 0,0 23,23 23,23 23,23 0,0 0,0 0,0 23,24 0,47 0,47 -23,0 -70,0 -94,0 -23,0 -23,-23 -23,-23 -24,-24 -24,-24 -24,-24 0,0 0,0 24,0 0,0 0,-23 0,-23 0,0 0,0 0,0 0,0 0,0 -24,-23 0,0 0,0 0,0 -23,-23 -47,-70 -70,-117 -47,0 -94,0 -141,0zm376 -94c24,0 47,-23 70,-47 0,-23 0,-47 0,-94 -23,0 -23,-24 -47,-47 0,-23 -24,-23 -47,-47 0,0 -23,0 -47,0 0,0 0,0 -24,0 0,0 0,23 0,47 24,23 47,70 47,94 23,24 23,70 47,94zm24 70c23,47 23,94 47,117 0,23 23,47 23,47 0,0 0,0 24,0 0,23 23,23 23,23 0,24 0,24 0,24 0,0 0,23 -23,23 -24,0 -70,0 -94,0 0,0 -24,0 -24,-23 0,0 0,0 0,0 -23,-24 -23,-24 -23,-24 23,0 23,0 23,-23 0,0 0,0 0,0 0,0 0,-23 0,-23 -47,-70 -70,-141 -94,-211 -23,-70 -70,-141 -94,-211 0,-23 0,-23 0,-23 -23,0 -23,0 -23,-24 0,0 -23,0 -23,0 0,0 0,0 0,-23 0,0 0,0 0,-23 0,0 0,0 0,0 70,0 141,0 188,0 23,0 47,23 94,23 23,23 47,23 47,47 24,23 47,47 47,70 23,47 23,70 23,94 0,23 0,47 0,70 -23,24 -23,47 -47,47 -24,23 -70,23 -94,23zm305 117c-23,-70 -47,-117 -94,-188 -23,-70 -47,-141 -70,-211 0,-23 0,-23 0,-23 0,0 0,0 -23,-24 0,0 0,0 0,0 0,0 -23,0 -23,-23 0,0 0,-23 23,-23 23,0 70,0 94,0 23,0 47,0 47,23 0,0 0,23 0,23 0,0 0,0 0,0 -24,0 -24,24 -24,24 0,0 0,0 24,23 0,70 23,141 47,188 24,70 47,141 70,211 0,23 23,23 23,23 0,0 0,0 0,0 0,23 24,23 24,23 0,0 0,0 0,0 0,23 0,23 0,23 0,24 0,24 -24,24 -23,0 -47,0 -70,0 -24,0 -24,0 -47,-24 0,0 0,-23 0,-23 0,0 0,0 23,0 0,0 0,0 0,-23 0,0 0,0 0,-23zm188 -211c0,23 0,70 24,94 0,23 0,47 23,70 0,23 0,23 23,47 0,0 0,0 24,23 0,0 0,0 23,0 0,0 0,-23 23,-23 0,0 23,0 23,0 24,0 24,-24 24,-24 0,-23 0,-23 0,-47 0,0 23,0 23,0 0,0 23,0 23,23 0,23 0,23 0,47 0,0 0,0 0,23 0,0 0,23 0,23 0,0 0,0 0,0 0,0 0,23 0,23 -94,0 -164,0 -235,24 -23,0 -47,-24 -47,-47 0,0 0,0 0,0 0,0 0,0 0,-23 0,0 23,0 23,0 0,0 0,-23 0,-23 -23,-70 -47,-141 -70,-211 -23,-70 -47,-141 -70,-211 0,0 0,0 -24,0 0,-24 0,-24 0,-24 0,0 -23,0 -23,0 0,0 0,-23 0,-23 0,-23 0,-23 23,-23 70,0 164,-23 258,-23 0,0 24,0 24,23 0,23 0,47 23,70 0,23 0,23 -23,23 0,0 0,0 0,0 -24,-23 -24,-23 -24,-23 -23,-24 -23,-24 -23,-24 -23,0 -47,0 -47,0 -23,0 -23,0 -47,0 0,0 -23,0 -23,0 0,0 0,24 0,24 23,47 23,94 47,141 23,0 47,0 70,0 23,0 23,0 23,0 0,0 0,0 0,-23 24,0 24,0 24,0 0,0 0,0 23,0 0,23 0,47 0,47 0,23 23,47 23,47 0,23 0,23 -23,23 0,0 0,0 -23,0 0,-23 0,-23 0,-23 0,0 -24,0 -24,0 -23,0 -47,0 -70,0zm258 -164c0,47 23,94 23,164 23,47 23,94 47,164 0,23 0,23 24,23 0,0 0,24 0,24 23,0 23,0 23,23 0,0 0,23 -23,23 0,0 -24,0 -47,0 -23,0 -23,0 -23,-23 0,0 0,0 0,0 0,-23 0,-23 0,-23 0,0 0,0 0,0 0,-24 0,-24 0,-47 0,-70 -23,-117 -47,-188 0,-47 -23,-117 -47,-188 0,-24 0,-24 0,-24 -24,-23 -24,-23 -24,-23 -23,0 -23,-23 -23,-23 -23,-23 0,-23 0,-23 47,0 70,0 94,-24 24,0 24,0 24,24 0,0 0,0 23,0 23,23 23,47 47,70 24,24 47,47 70,94 23,47 47,70 70,94 23,23 23,47 47,70 -24,-47 -24,-94 -47,-141 0,-24 0,-70 -23,-117 0,-23 0,-23 0,-47 0,0 -24,0 -24,0 0,0 0,0 -23,0 0,-23 0,-23 0,-23 0,-24 0,-24 23,-24 24,0 47,-23 70,-23 24,0 24,23 24,23 0,24 0,24 0,24 -24,23 -24,23 -24,23 0,0 0,23 0,47 24,70 24,141 47,211 23,70 23,141 47,211 0,24 0,47 0,47 0,0 -23,0 -23,0 -23,0 -23,0 -47,-23 -24,-47 -70,-117 -117,-188 -47,-70 -94,-117 -141,-188zm469 305c0,-70 -23,-141 -23,-211 -24,-70 -24,-141 -47,-211 0,0 0,0 0,-23 0,0 0,0 -23,0 -23,0 -47,23 -47,70 0,0 -23,0 -23,0 0,24 0,0 -23,0 0,0 0,-23 0,-23 0,0 0,-23 0,-23 0,-23 0,-47 0,-47 0,-23 0,-23 0,-23 117,0 211,-23 305,-23 24,0 24,0 24,0 0,23 0,23 0,47 23,24 23,24 23,24 0,23 0,47 -23,47 0,0 0,0 -24,-23 0,0 -23,-23 -23,-23 -23,0 -23,0 -47,0 0,0 0,0 -24,0 0,0 0,0 0,23 24,70 24,141 47,211 0,70 23,141 23,211 0,0 0,0 0,0 23,23 23,23 23,23 0,0 0,0 0,23 0,24 0,24 0,24 -47,0 -70,0 -94,0 -23,0 -23,0 -47,-24 0,0 0,0 0,0 0,-23 23,-23 23,-23 0,0 0,0 0,0 0,-23 0,-23 0,-23 0,0 0,0 0,0zm258 -24c-23,-70 -23,-141 -23,-211 0,-70 -23,-141 -23,-211 0,0 0,0 0,-24 -24,0 -24,0 -24,0 0,0 0,0 0,-23 -23,0 -23,0 -23,0 0,-23 23,-23 23,-23 47,0 70,-24 117,-24 0,0 23,24 23,24 0,23 0,23 0,23 0,0 0,0 -23,0 0,23 0,23 0,23 0,0 0,24 0,24 0,70 23,141 23,211 0,70 0,141 23,211 0,0 0,0 0,0 0,0 0,24 0,24 23,0 23,0 23,0 0,0 0,23 0,23 0,0 0,23 0,23 0,0 -23,0 -23,0 -23,0 -70,0 -94,0 0,0 -23,0 -23,-23 0,0 0,0 0,0 0,0 0,-23 0,-23 23,0 23,0 23,0 0,-24 0,-24 0,-24zm211 -188c47,0 94,0 117,0 0,-47 -23,-70 -23,-117 -24,-23 -24,-70 -47,-94 0,23 0,70 -23,94 0,47 0,70 -23,117zm0 70c0,23 0,47 -24,94 24,23 24,23 24,23 0,0 0,24 0,24 0,0 0,0 23,0 0,0 0,0 0,23 0,0 0,0 -23,23 0,0 0,0 0,0 -24,0 -47,0 -70,0 0,0 0,0 -24,-23 0,0 0,-23 0,-23 24,0 24,0 24,0 0,0 0,-24 0,-24 0,0 0,-23 0,-23 23,-23 23,-70 23,-117 0,-47 23,-94 23,-141 0,-47 24,-70 24,-117 23,-47 23,-70 23,-94 0,0 23,-24 23,-24 0,0 0,-23 23,0 24,0 24,0 24,0 23,0 23,0 23,24 23,23 23,70 47,117 23,70 23,117 47,141 0,47 23,94 23,117 24,47 24,70 24,94 0,0 0,23 0,23 23,0 23,0 23,0 0,24 0,24 0,24 0,0 0,0 0,0 0,23 0,47 -23,47 -24,0 -47,0 -94,0 0,0 -24,-23 -24,-23 0,-23 0,-23 0,-23 0,0 24,0 24,0 0,0 0,-24 0,-24 0,0 0,0 0,0 0,0 0,0 0,-23 0,0 0,0 0,0 0,-23 -24,-70 -24,-94 -47,0 -94,0 -141,0zm704 -94c0,-23 0,-70 0,-94 0,-47 0,-94 0,-117 0,-24 0,-24 0,-24 0,0 0,0 0,24 0,0 -23,0 -23,23 0,23 -24,23 -24,47 -23,24 -23,47 -47,94 0,24 0,47 -24,47 47,0 70,0 117,0zm-23 70c-24,0 -70,0 -117,0 0,23 0,47 -23,70 0,23 0,47 0,47 0,23 0,23 0,23 0,0 0,0 0,24 23,0 23,0 23,0 0,0 0,0 0,23 0,0 0,0 0,23 0,0 -23,0 -23,0 -23,0 -47,0 -70,0 0,0 -23,0 -23,-23 0,0 0,0 0,-23 0,0 0,0 0,0 0,0 23,-24 23,-24 0,0 0,0 23,-23 0,-23 0,-70 24,-94 23,-47 23,-94 47,-141 23,-47 47,-70 47,-117 23,-47 47,-70 47,-94 0,-23 24,-23 24,-23 0,0 23,-24 23,-24 94,24 188,24 282,24 0,0 0,23 0,23 0,0 23,0 23,23 0,0 0,0 0,24 0,0 0,23 0,23 -23,23 -23,47 -23,47 -23,0 -23,-23 -23,-23 -23,-23 -23,-23 -23,-47 -24,0 -24,0 -47,0 0,0 -23,-24 -23,-24 -47,0 -47,24 -70,24 0,70 0,117 0,164 23,0 47,0 94,0 0,0 0,0 0,0 0,0 23,0 23,-23 0,0 0,0 24,0 0,0 0,0 0,0 0,23 0,23 0,47 0,0 0,23 0,23 0,47 -24,47 -24,47 0,0 0,0 -23,0 0,-24 0,-24 0,-24 0,0 0,0 -23,0 -23,0 -47,0 -70,0 0,47 -23,94 -23,141 0,23 0,23 0,47 0,0 0,0 23,24 0,0 0,0 23,0 24,0 24,0 47,0 0,0 23,0 23,0 0,0 23,0 23,-24 0,0 0,-23 24,-23 0,0 0,-23 23,-23 0,0 0,23 0,47 0,0 0,47 -23,70 0,0 0,24 0,24 0,0 0,0 -24,0 -70,0 -164,-24 -235,-24 -24,0 -24,0 -24,0 0,0 0,-23 0,-23 0,0 0,-23 0,-23 0,0 0,0 0,0 24,0 24,0 24,-24 0,0 0,0 0,0 0,-47 0,-94 0,-141zm329 164c0,-70 0,-141 24,-211 0,-70 0,-141 23,-211 0,0 0,0 0,-23 0,0 0,0 -23,0 0,0 0,0 0,-24 0,0 0,0 0,0 0,-23 0,-23 23,-23 70,0 117,0 164,23 47,0 94,0 117,24 24,23 47,70 47,117 0,23 0,47 0,70 0,23 0,47 0,70 0,47 -23,70 -23,94 0,23 -24,47 -24,70 -23,47 -70,70 -94,94 -23,23 -70,23 -94,23 -70,0 -117,-23 -164,-23 -23,0 -23,0 -23,-24 0,0 0,0 0,-23 0,0 23,0 23,0 0,0 0,0 0,0 0,-23 0,-23 23,-23zm94 -24c-24,24 0,47 23,47 23,23 47,0 70,-23 0,0 23,-24 23,-24 23,-23 23,-47 47,-70 0,-24 23,-47 23,-94 0,-24 0,-70 0,-94 0,-47 -23,-70 -23,-94 -24,-47 -47,-47 -70,-47 -24,0 -24,0 -24,0 -23,0 -23,23 -23,23 -23,70 -23,141 -23,188 -23,70 -23,117 -23,188zm305 47c0,-70 23,-117 23,-188 24,-70 24,-141 24,-211 0,0 0,0 0,-23 0,0 0,0 0,0 0,0 0,-23 0,-23 0,0 0,0 0,0 0,-23 0,-23 23,-23 23,0 70,0 94,0 23,0 23,23 23,23 0,23 0,23 0,23 0,0 -23,0 -23,0 0,0 0,23 0,23 0,0 -23,0 -23,24 0,70 -23,117 -47,188 0,70 -23,141 -47,211 0,0 0,0 0,24 0,0 0,0 23,0 0,0 0,0 0,23 0,0 0,0 0,0 0,23 0,23 -23,23 0,0 0,0 0,0 -24,0 -47,0 -70,0 -23,0 -23,-23 -23,-23 0,-23 0,-23 0,-23 0,0 23,0 23,0 0,0 0,-24 0,-24 0,0 23,0 23,-23zm258 -141c0,24 0,47 -23,94 0,24 0,47 -23,70 0,24 0,24 0,24 0,0 0,23 23,23 0,0 0,0 0,0 0,0 0,23 0,23 0,23 -23,23 -47,23 -23,0 -47,0 -70,0 -24,-23 -24,-23 -24,-47 0,0 0,0 0,0 0,0 0,-23 24,-23 0,0 0,0 0,0 0,0 0,-24 23,-24 0,-70 23,-141 47,-211 0,-47 24,-117 47,-188 0,-24 0,-24 0,-24 0,0 0,0 0,0 -23,-23 -23,-23 -23,-23 0,0 0,0 0,-23 0,0 23,-23 47,-23 70,23 164,23 235,23 23,0 23,47 0,94 0,23 0,47 -23,23 0,0 0,0 0,0 0,0 0,-23 -24,-23 0,-23 0,-23 0,-23 -23,-24 -23,-24 -47,-24 0,0 -23,0 -23,0 0,0 0,0 0,0 -24,0 -47,24 -47,47 -23,23 -23,47 -23,70 0,23 -23,47 -23,70 23,0 47,0 70,0 24,0 24,0 24,0 0,0 23,0 23,0 0,-24 0,-24 23,-24 0,0 0,24 0,24 0,23 0,23 0,47 -23,23 -23,23 -23,47 0,0 -23,0 -23,0 0,0 0,0 0,0 -24,0 -24,-24 -24,-24 0,0 0,0 -23,0 -23,0 -47,0 -70,0zm164 188c23,-70 47,-141 70,-211 23,-47 47,-117 70,-188 0,-23 0,-23 0,-23 0,0 0,0 -23,-24 0,0 0,0 0,0 0,0 0,0 0,-23 0,0 23,-23 47,-23 23,0 47,0 94,0 23,0 23,23 23,47 0,0 -23,0 -23,0 0,0 0,24 0,24 -23,0 -23,0 -23,0 0,0 0,23 0,23 -23,70 -47,141 -70,211 -23,70 -47,117 -70,188 0,23 0,23 0,23 0,0 0,23 0,23 0,0 0,0 0,0 0,0 0,0 0,23 0,0 0,0 0,24 0,0 -23,0 -23,0 -23,0 -70,0 -94,0 -23,0 -23,-24 -23,-47 23,0 23,0 23,0 0,0 0,0 0,-23 23,0 23,0 23,0 0,0 0,0 0,-23zm211 -188c23,-47 47,-94 70,-117 24,-47 47,-70 70,-94 47,-23 70,-47 94,-70 47,-23 70,-23 94,-23 23,0 47,0 70,0 24,23 24,23 24,47 23,0 23,24 23,24 0,23 -23,47 -23,94 -24,23 -24,23 -47,23 0,0 0,0 0,0 0,-23 0,-23 0,-47 0,-23 0,-47 -23,-70 0,0 -23,-24 -47,-24 -23,0 -23,24 -47,24 -24,23 -24,23 -47,47 -23,23 -47,47 -47,70 -24,23 -47,70 -47,94 0,0 0,0 0,0 0,23 0,23 -23,23 0,47 -24,70 -24,117 0,23 0,70 24,94 0,0 0,23 23,23 0,0 0,0 23,0 0,0 24,0 47,-23 23,0 47,-23 70,-47 0,-23 23,-23 23,-23 0,0 23,0 23,0 0,0 0,23 -23,23 0,24 0,24 0,24 -23,23 -47,47 -70,70 -23,24 -47,24 -70,24 -23,23 -23,23 -47,23 0,0 -24,0 -24,0 0,0 0,0 0,0 -23,0 -47,-23 -47,-47 -23,0 -23,-23 -47,-47 0,-23 0,-70 0,-94 0,-47 24,-70 24,-117 0,0 0,0 0,0zm469 24c47,0 70,0 117,0 0,-47 23,-70 23,-117 0,-23 0,-70 23,-94 -47,23 -70,70 -94,94 -23,47 -47,94 -70,117zm-47 70c0,24 -24,70 -70,117 0,0 0,23 0,23 0,0 0,0 0,0 0,0 0,23 0,23 0,0 0,0 0,0 0,24 0,24 0,24 -23,0 -23,23 -23,23 -24,0 -47,0 -70,0 0,0 0,-23 0,-47 0,0 0,0 0,0 23,0 23,-23 23,-23 0,0 23,0 23,-23 0,0 0,0 24,-23 0,-24 23,-70 70,-117 24,-23 47,-70 94,-117 24,-47 47,-94 70,-141 47,-47 70,-70 70,-94 23,-23 23,-23 47,-23 0,-23 0,-23 23,-23 23,0 23,0 23,0 24,0 24,23 0,23 0,47 0,94 -23,141 0,47 0,94 -23,141 0,47 0,94 -24,117 0,47 -23,70 -23,94 0,0 0,23 0,23 0,0 0,0 0,0 0,23 0,23 0,23 0,0 0,0 0,0 0,23 -23,47 -47,47 -24,0 -47,0 -94,0 0,0 0,0 0,-24 0,0 0,0 0,0 0,-23 24,-23 24,-23 0,0 0,0 0,0 0,0 23,-23 23,-23 0,0 0,0 0,0 0,0 0,0 0,0 0,-47 23,-94 23,-117 -47,0 -94,0 -141,0zm329 70c47,-70 70,-141 117,-211 23,-70 70,-164 117,-235 0,0 0,-23 0,-23 0,0 0,0 -23,0 -23,0 -70,23 -94,70 -23,0 -23,23 -23,23 -24,0 -24,0 -24,0 0,-23 0,-23 0,-47 24,0 24,0 24,-23 23,-23 23,-47 47,-47 0,-24 0,-24 23,-24 117,-23 235,-47 352,-70 0,0 0,0 0,0 0,0 0,24 -24,47 0,23 0,23 0,23 -23,47 -47,70 -47,70 -23,0 -23,-23 -23,-23 0,-23 0,-23 0,-23 -24,-24 -24,-24 -47,-24 0,24 -23,24 -23,24 0,0 0,23 -24,23 -23,70 -70,164 -117,235 -47,70 -70,164 -117,235 0,0 0,24 0,24 0,0 0,0 0,0 0,23 0,23 0,23 -24,23 -24,47 -47,47 -23,0 -70,0 -94,0 -23,0 -23,0 -23,-23 23,0 23,0 23,-23 0,0 0,0 23,0 0,0 0,0 0,-23 24,0 24,0 24,-24 0,0 0,0 0,0z"/>
   <path class="fil3" d="M2119 9712c47,0 70,47 70,94 0,47 -23,94 -70,94 -47,0 -94,-47 -94,-94 0,-47 47,-94 94,-94zm2775 15c-47,0 -94,47 -94,94 0,47 47,94 94,94 47,0 94,-47 94,-94 0,-47 -47,-94 -94,-94zm-1372 -7c47,0 70,47 70,94 0,47 -24,94 -70,94 -47,0 -94,-47 -94,-94 0,-47 47,-94 94,-94z"/>
   <path class="fil7" d="M3328 8398c24,23 24,23 47,47l329 0c0,-23 0,-23 23,-47l-399 0zm-423 -5235c0,-23 -23,-70 -47,-94l258 0c-47,23 -47,47 -70,94l-141 0zm1238 5070c0,0 0,23 0,23 0,0 0,23 0,23 47,-23 141,-23 188,-47l-188 0zm-1942 -164l2465 0c-14,8 37,44 23,51 -41,24 -123,41 -188,43l-1163 0c-73,-63 -143,-61 -209,0l-600 0c-122,-15 -232,-47 -329,-94zm2739 -329l0 0 -16 0c0,47 24,70 47,94l9 0 3 6 302 0 0 -6 15 0c0,0 23,-23 23,-23 0,0 0,0 0,0 0,0 -23,23 -23,23l-15 0 -7 -94 22 0c0,23 23,47 23,70 23,0 23,0 23,0 0,0 0,0 0,-24 0,0 0,0 0,0 0,24 0,24 0,24 0,0 0,0 -23,0 0,0 0,0 0,0 0,-24 -23,-47 -23,-70l-22 0 0 0 -338 0zm-1518 -798c23,0 47,24 94,24l0 0c23,0 47,-24 94,-24 23,24 70,70 94,94l-751 0c0,-24 0,-47 0,-47 0,-23 0,-23 0,-47l470 0zm-70 -70c-24,-24 -24,-47 -47,-94 -70,23 -141,23 -188,0l-1690 0 0 94 493 0c23,-24 70,-47 94,-47 47,0 94,23 117,47l563 0c23,-24 70,-47 117,-47 24,0 70,23 94,47l446 0zm-399 -258c23,23 23,70 47,94l-540 0c23,-24 70,-47 70,-94l423 0zm23 -164c-23,23 -23,70 -23,94l-399 0c-23,-47 -23,-70 -47,-94l469 0zm0 -329c24,47 70,70 117,70 0,23 0,23 0,23l-141 0c0,-23 23,-47 23,-70 0,0 0,0 0,-23l0 0zm-70 -164c0,23 0,47 0,70 -23,-24 -47,-47 -94,-47 -70,0 -117,23 -141,70l-516 0c-24,-47 -70,-70 -141,-70 -47,0 -94,23 -141,70l-493 0 0 -94 1526 0zm-47 -117c23,0 23,24 23,47l-1526 0 0 -70 117 0c23,23 70,70 117,70 70,0 117,-47 141,-70l516 0c23,23 70,70 141,70 47,0 94,-47 117,-70l352 0c0,0 0,0 0,23zm-446 -423c23,-23 23,-23 23,-23 23,0 23,0 23,23l-47 0zm-70 70c0,24 -23,24 -47,47 -23,0 -47,-23 -70,-47l-892 0 23 70 164 0c23,0 47,0 70,0 23,0 47,0 70,0l657 0c23,0 47,0 70,0 24,0 47,0 70,0l188 0c-23,-23 -47,-47 -94,-70l-211 0zm-188 -117c23,0 23,23 23,47l-47 0c24,-23 24,-47 24,-47zm-24 -188c0,0 0,0 0,0 0,-24 -23,-24 -23,-24l0 0c23,0 23,0 23,24zm282 -423c47,-24 70,-24 117,-24 47,-23 117,-23 164,0 -23,-23 -70,-47 -94,-70l-446 0c0,0 0,0 0,0 47,47 70,70 94,94l164 0zm681 329c0,-24 0,-47 -24,-70 24,23 47,47 70,70l-47 0zm70 164c-23,-47 -23,-70 -23,-94l47 0c23,24 23,47 23,94l-47 0zm24 164c0,-47 0,-70 -24,-94l70 0c24,24 24,47 47,94l-94 0zm23 141c0,-23 0,-47 0,-70l94 0c0,24 23,47 23,70l-117 0zm23 164c0,-23 0,-47 0,-70l117 0c0,24 23,47 23,70l-141 0zm47 94c23,0 23,0 47,0 0,0 0,0 24,0l-70 0zm-141 -1314c0,23 0,47 0,70 -23,-24 -47,-47 -70,-70l70 0zm47 -164c-24,47 -24,70 -24,94l-188 0c-47,-23 -70,-47 -117,-94l329 0zm47 -141c-23,23 -23,47 -23,70l-423 0c-23,-23 -70,-47 -94,-70l516 0c0,0 0,0 23,0zm258 -446c-23,23 -23,47 -47,70l-70 0c-23,-47 -70,-70 -94,-94l164 0c0,0 23,23 47,23zm563 2864c0,23 -23,70 -47,94l352 0c-47,-24 -70,-70 -117,-94l-188 0zm0 -164c23,23 23,70 23,94l70 0c-23,-24 -70,-47 -94,-94zm-352 -164c0,47 0,70 23,94l258 0c-23,-23 -47,-47 -70,-94l-211 0zm0 -70c0,0 0,0 0,0l164 -23c0,23 0,23 0,23l-164 0zm446 -399c0,23 0,47 0,70l423 0c-23,-23 -47,-47 -70,-70l-352 0zm23 -94c0,0 0,-23 0,-23 24,-23 24,-47 24,-47l211 0c23,24 23,47 47,70l-282 0zm94 -235c-23,24 -47,47 -47,70l141 0c0,-23 -24,-47 -47,-70l-47 0zm493 0c0,0 0,24 -23,24 23,23 47,47 47,47l634 0c23,0 47,0 70,0 0,0 23,0 47,0l117 0 0 -70 -892 0zm94 -164c-23,24 -23,47 -47,94l188 0c-23,-23 -23,-70 -47,-94l-94 0zm0 -70c24,-47 24,-70 24,-94 0,0 0,0 0,0l164 0c-47,24 -70,47 -70,94l-117 0zm-23 -258c0,24 23,70 23,94l822 0 0 -94 -94 0c-23,24 -70,47 -94,47 -47,0 -94,-23 -117,-47l-540 0zm-235 -235c-23,-24 -70,-24 -94,-24 -70,-23 -117,-23 -164,0 0,-23 -23,-47 -23,-70l1385 0 0 94 -117 0c-23,-24 -47,-47 -94,-47 -47,0 -94,23 -117,47l-563 0c-23,-24 -70,-47 -94,-47 -47,0 -70,23 -117,47l0 0zm-681 329c24,-47 24,-70 47,-94l-94 0c0,24 -24,70 -24,94l70 0zm-47 164c0,-47 23,-70 23,-94l-70 0c0,24 0,47 -23,94l70 0zm-24 141c0,-23 0,-47 0,-70l-47 0c23,24 23,47 47,70zm47 -563c0,23 0,70 -23,94l141 0c-23,-24 -47,-70 -70,-94l-47 0zm-188 -775c23,24 23,47 47,70 0,0 0,0 24,0l23 0c-23,-23 -23,-47 -23,-70 0,0 0,0 0,0l-70 0zm-70 -164c0,24 23,47 47,70l117 0c23,-47 70,-70 141,-70 47,0 94,24 141,70l493 0c23,-47 94,-70 141,-70 47,0 94,24 117,70l516 0c23,-47 70,-70 141,-70 47,0 94,24 141,70l117 0 0 -70 -2113 0zm-70 -94c0,0 0,0 23,24l2183 0 0 -94 -516 0c-47,47 -94,70 -141,70 -47,0 -94,-23 -117,-70l-516 0c-23,47 -70,70 -117,70 -70,0 -94,-23 -141,-70l-516 0c-47,47 -94,70 -141,70 0,0 0,0 0,0zm-563 -469c-24,-23 -24,-70 -47,-94l94 0c0,47 23,70 47,94l-94 0zm94 164c-24,-23 -47,-70 -47,-94l2746 0 -23 94 -587 0c-23,-23 -47,-23 -70,-23 -23,0 -47,0 -70,23l-610 0c-23,-23 -47,-23 -70,-23 -24,0 -70,0 -94,23l-634 0c0,-23 -47,-23 -70,-23 -23,0 -47,0 -70,23l-399 0zm117 164c-23,-47 -47,-70 -70,-94l282 0c0,23 -24,47 -24,70 0,0 0,0 0,24l-188 0zm751 610c-47,-23 -70,-47 -94,-70l47 0c0,0 0,0 24,0 0,0 0,0 23,0l728 0c24,0 24,0 24,0 0,0 0,0 0,0l751 0c0,0 0,0 23,0 0,0 0,0 23,0l235 0 -23 70 -1761 0zm141 164c-24,-23 -47,-47 -70,-94l188 0c0,23 -23,70 -23,94l-94 0zm70 70c24,23 47,47 47,70 23,0 23,23 23,23l47 0c-47,-23 -70,-47 -94,-94l-24 0zm681 1150c0,0 24,24 24,24 23,23 47,47 47,47l399 0c0,0 0,0 0,0 0,-23 0,-47 23,-70l-493 0zm282 235c-47,-23 -94,-47 -117,-70l329 0c23,23 70,70 141,70 47,0 94,-47 117,-70l24 0 0 70 -493 0zm258 164c-47,-23 -94,-47 -141,-94l376 0 0 94 -235 0zm211 164c-23,-47 -70,-70 -94,-94l117 0 -24 94zm0 164l0 -23 0 23 0 0zm-23 164l23 -94 0 0 -23 94 0 0zm0 164l0 -94 0 0 0 94 0 0zm-94 -94c23,23 47,47 70,94l-516 0c-47,-47 -94,-70 -141,-94l587 0zm-188 -164c47,23 70,70 117,94l-634 0c-47,-24 -70,-70 -117,-94l634 0zm-235 -164c47,23 94,70 141,94l-657 0c-23,-23 -70,-47 -94,-94l610 0zm-258 -164c47,47 94,70 117,94l-563 0c0,-23 -24,-23 -47,-47 0,-23 -23,-23 -23,-47l516 0zm-164 -164c47,47 70,70 70,94l-493 0c-23,-23 -47,-47 -70,-94l493 0zm-1667 -1901c47,24 70,47 117,70l-470 0c-23,-23 -47,-47 -70,-70l423 0zm-70 -94c0,0 0,0 0,0 -23,-23 -47,-47 -47,-70l-423 0c23,24 47,47 70,70l399 0zm-164 -235c24,23 47,47 47,94l-376 0c-24,-47 -24,-70 -47,-94l376 0zm-70 -164c0,23 23,47 47,94l-399 0c0,-47 -24,-70 -47,-94l399 0zm-70 -164c0,23 23,70 23,94l-376 0c-24,-47 -47,-70 -70,-94l423 0zm-70 -164c0,23 23,70 23,94l-423 0c-23,-23 -47,-70 -70,-94 0,0 0,0 0,0l470 0zm-117 -164c23,23 47,70 70,94l-493 0c-24,-23 -47,-70 -70,-94l493 0zm-493 1925l-235 0c-23,24 -47,24 -94,24 -23,0 -70,0 -94,-24l-188 0 0 94 704 0c-47,-24 -70,-70 -94,-94zm3310 1878c-47,-47 -70,-70 -94,-94l446 0 0 94 -352 0zm117 164c0,-47 -23,-70 -70,-94l282 0 0 94 -211 0zm117 141c-24,-23 -24,-47 -47,-70l141 0 0 70 -94 0zm47 94c0,24 23,47 23,47l0 23 0 0 24 -70 -47 0zm0 235c23,-23 23,-47 23,-70l0 0c0,24 0,47 -23,70l0 0zm-70 164c24,-23 24,-47 47,-70l0 0c-23,23 -23,47 -47,70l0 0zm-117 141c0,0 0,0 0,0 0,0 0,0 0,0 0,0 0,0 0,0 0,0 0,0 0,0 0,0 0,0 0,0 0,0 0,0 0,0 0,0 0,0 0,0 0,0 0,0 0,0 0,0 0,0 0,0 0,0 0,0 0,0 0,0 0,0 0,0 0,0 0,0 0,0 0,0 0,0 0,0 0,0 0,0 0,0 0,0 0,0 0,0 0,0 0,0 0,0 0,0 0,0 0,0 0,0 0,0 0,0 0,0 0,0 0,0 0,0 0,0 0,0 0,0 0,0 0,0 0,0 0,0 0,0 0,0 0,0 0,0 0,0 0,0 0,0 0,0 0,0 0,0 0,0 0,0 0,0 0,0 0,0 0,0 0,0 0,0 0,0 0,0 0,0 0,0 0,0 0,0 0,0 0,0 0,0 0,0 0,0 0,0 0,0 0,0 0,0 0,0 0,0 0,0 0,0 0,0 0,0 0,0 0,0 0,0 0,0 0,0 0,0 0,0 0,0 0,0 0,0 0,0 0,0 0,0 0,0 0,0 0,0 0,0 0,0 0,0 0,0 0,0 0,0 0,0 0,0 0,0 0,0 0,0 0,0 0,0 0,0 0,0 0,0 0,0 0,0 0,0 0,0 0,0 0,0 0,0 0,0 0,0 0,0 0,0 0,0 0,0 0,0 0,0 0,0 0,0 0,0 0,0 0,0 0,0 0,0 0,0 0,0 0,0 0,0 0,0 0,0 0,0 0,0 0,0 0,0 0,0 0,0 0,0 0,0 0,0 0,0zm-94 -211c0,23 23,47 23,70l-376 0c-24,-23 -24,-47 -47,-70l399 0zm-70 -164c0,24 23,47 23,70l-399 0c0,-23 -24,-47 -47,-70l423 0zm-117 -164c23,24 47,47 70,70l-399 0c-24,-23 -47,-47 -70,-70l399 0zm-141 -164c23,24 47,47 70,70l-399 0c-47,-23 -70,-47 -117,-70l446 0zm-188 -164c47,24 70,47 117,94l-469 0c-47,-47 -70,-70 -117,-94l470 0zm-235 -164c47,23 94,47 164,94l-540 0c-47,-47 -70,-70 -117,-94l493 0zm-2089 -2277c47,47 70,70 117,94l-423 0c0,-23 -24,-47 -47,-94l352 0zm-70 -70c0,0 0,0 0,0 -24,-23 -47,-47 -70,-94l-305 0c23,47 23,70 47,94l329 0zm-164 -235c23,23 47,47 47,70l-282 0c-23,-23 -47,-47 -47,-70l282 0zm-70 -141c0,24 23,47 47,70l-305 0c-24,-23 -24,-47 -47,-70l305 0zm-70 -164c0,24 23,47 23,70l-305 0c-24,-23 -47,-47 -70,-70l352 0zm-94 -164c23,23 47,47 47,94l-352 0c-47,-47 -70,-70 -94,-94l399 0zm-94 -164c23,23 47,47 70,94l-446 0c-47,-47 -70,-70 -94,-94l470 0zm-117 -164c24,23 47,70 70,94l-516 0c-23,-23 -23,-23 -47,-47l0 -47 493 0zm-164 -164c47,23 70,70 94,94l-423 0 -23 -94 352 0zm-188 -164c47,23 70,70 117,94l-282 0 0 -94 164 0zm-117 821l0 47c23,0 23,23 47,23l-47 0 0 -70zm3779 4014c24,23 47,47 47,70 -23,0 -47,23 -70,23l0 0c70,-23 117,-47 188,-94l-164 0zm-423 0c24,47 24,70 47,94l-2629 0c-23,0 -23,0 -23,0 0,0 23,0 23,0 70,0 117,-47 141,-94l516 0c23,47 70,94 141,94 47,0 94,-47 141,-94l493 0c23,47 94,94 141,94 70,0 117,-47 141,-94l516 0c23,47 70,94 141,94 47,0 94,-47 141,-94l70 0zm-70 -164c23,47 23,70 47,94l-47 0c0,0 0,0 0,0 0,-23 0,-70 -24,-94l24 0zm-94 -141c24,23 24,47 47,70l-70 0c-23,0 -23,0 -23,0 -23,0 -23,0 -23,0l-751 0c0,0 -24,0 -24,0 0,0 -23,0 -23,0l-728 0c-24,0 -24,0 -24,0 -23,0 -23,0 -23,0l-728 0c-23,0 -23,0 -47,0 0,0 -23,0 -23,0l-423 0c-24,-23 -47,-47 -47,-70l2911 0zm-141 -164c23,24 47,47 70,70l-235 0c23,-23 47,-47 47,-70l117 0zm-188 -164c23,24 70,47 94,70l-24 0c-23,-23 -47,-70 -94,-70l24 0zm-258 -164c47,24 94,47 141,70l-2535 0 0 -70 470 0c23,24 47,47 94,47 47,0 94,-23 117,-47l563 0c23,24 70,47 117,47 24,0 70,-23 94,-47l939 0zm-704 -821c0,47 23,70 47,94l-1784 0 0 -94 563 0c24,0 47,23 47,23 23,0 47,-23 47,-23l704 0c0,0 23,23 47,23 0,0 24,-23 47,-23l282 0zm-423 -634c23,24 47,47 70,70l-235 0c0,0 0,0 0,0 0,-23 -23,-47 -23,-70l188 0zm-939 -822c23,23 47,70 70,94l-94 0c0,-24 0,-47 0,-47 0,-23 0,-23 0,-47l23 0zm-94 -164c23,23 47,70 47,94l-24 0c-23,-24 -70,-47 -117,-47 -47,0 -70,23 -117,47l-188 0 0 -94 399 0zm-70 -164c23,47 23,70 47,94l-376 0 0 -94 329 0zm-70 -164c24,47 24,70 47,94l-305 0 -23 -94 282 0zm-94 -141c24,23 47,47 47,70l-235 0 0 -70 188 0zm-117 -141c23,24 47,47 70,70l-141 0 0 -70 70 0zm4296 869c0,-24 23,-24 23,-47 0,-23 -23,-23 -23,-47l70 0 0 94 -70 0zm-305 -94c0,23 0,23 0,47 0,23 0,23 0,47l-470 0c0,-24 0,-24 0,-47 0,-23 0,-23 0,-47l470 0zm-1479 -1760l-540 0c23,23 47,47 47,94l423 0c0,-47 23,-70 70,-94zm775 0l-587 0c23,23 47,47 47,94l493 0c0,-47 23,-70 47,-94zm775 0l-610 0c23,23 47,47 70,94l470 0c0,-47 23,-70 70,-94zm188 0l235 0 -24 94 -164 0c0,-47 -24,-70 -47,-94zm-2934 3873c0,24 0,24 0,47 0,0 0,23 0,47l-469 0c0,-24 0,-47 0,-47 0,-23 0,-23 0,-47l469 0zm1596 798c-23,23 -23,70 -23,94 0,0 0,0 0,0l-469 0c0,0 0,0 0,0 0,-23 0,-70 -23,-94l516 0zm-376 -399c0,-23 47,-70 70,-70l-657 0c47,0 70,47 70,70l516 0zm23 164c-23,-23 -23,-47 -47,-70l-469 0c0,24 -23,47 -47,70l563 0zm-446 235c0,23 -23,70 -23,94 0,0 0,0 0,0l-470 0c0,0 0,0 0,0 0,-23 0,-70 -23,-94l516 0zm421 493c-6,32 0,64 18,94 0,0 -40,0 -40,0l-490 0c17,-28 24,-59 17,-93l495 -1zm-773 0c0,0 0,23 0,23 0,0 0,23 0,23 -47,-23 -141,-23 -188,-47l188 0zm-423 -493c-24,23 -24,70 -24,94 0,0 0,0 0,0l-469 0c0,0 0,0 0,0 0,-23 0,-70 -23,-94l516 0zm399 -399c0,-23 47,-70 70,-70l-681 0c23,0 47,47 70,70l540 0zm24 164c-24,-23 -47,-47 -47,-70l-493 0c-23,24 -23,47 -47,70l587 0zm-869 -164c24,-23 47,-70 94,-70l-657 0c47,0 70,47 94,70l469 0zm47 164c-23,-23 -47,-47 -47,-70l-469 0c0,24 -23,47 -47,70l563 0zm-399 235c0,23 -23,70 -23,94 0,0 0,0 0,0l-141 0c-23,-23 -70,-47 -94,-94l258 0zm70 235c-23,-24 -47,-47 -70,-70l-47 0c47,23 70,47 117,70zm-493 -634c24,-47 47,-70 70,-70l-70 0 0 70zm423 -399c0,24 -23,24 -23,47 0,0 23,23 23,47l-446 0 0 -94 446 0zm352 -399c0,-47 24,-70 47,-94l-563 0c24,23 47,47 47,94l469 0zm94 164c-47,-24 -70,-47 -94,-94l-469 0c-23,47 -47,70 -94,94l657 0zm-892 -164c23,-47 23,-70 47,-94l-70 0 0 94 23 0zm94 164c-23,-24 -70,-47 -70,-94l-47 0 23 94 94 0zm634 -493c23,-23 23,-47 23,-70 0,0 0,0 0,-23l469 0c0,23 0,23 0,23 0,23 0,47 24,70l-516 0zm-305 -94c0,23 0,23 0,23 0,23 23,47 23,70l-493 0 0 -94 470 0zm399 -470c-24,24 -24,47 -24,70 0,0 0,0 0,0l-469 0c0,0 0,0 0,0 0,-23 0,-47 -23,-70l516 0zm-798 0c0,24 -23,47 -23,70 0,0 0,0 0,0l-70 0 0 -70 94 0zm423 -399c0,-47 24,-70 70,-94l-610 0 0 94 540 0zm47 164c-23,-23 -47,-70 -47,-94l-540 0 0 94 587 0zm-470 -587c-23,23 -23,23 -23,47 0,0 23,23 23,47l-141 0 0 -94 141 0zm4178 892c0,0 23,0 23,0 0,-23 -23,-47 -23,-70l23 0 0 70 -23 0zm-352 -399c0,24 -23,70 -47,94l423 0 23 -94 -399 0zm-70 -164c23,24 47,47 70,94l399 0 0 -94 -469 0zm-704 -657c-23,47 -47,70 -94,94l634 0c-24,-23 -47,-47 -70,-94l-470 0zm-23 -164c23,23 23,70 47,94l423 0c23,-23 23,-70 47,-94l-516 0zm798 164c-23,47 -47,70 -94,94l540 0 0 -94 -446 0zm-47 -164c23,23 47,70 47,94l446 0 0 -94 -493 0zm376 -211c24,-23 47,-47 47,-70 0,0 0,0 0,0l94 0 0 70 -141 0zm-282 -70c0,0 0,0 0,0 0,24 0,47 23,70l-516 0c23,-23 23,-47 23,-70 0,0 0,0 0,0l470 0zm-47 -399c0,-24 0,-24 0,-24 0,-23 0,-47 -23,-70l516 0 0 94 -493 0zm-305 -94c0,23 -23,47 -23,70 0,0 0,0 0,24l-446 0c24,-24 24,-24 24,-24 0,-23 -24,-47 -24,-70l470 0zm-423 493c0,0 0,0 0,0 0,24 23,47 23,70l-516 0c23,-23 47,-47 47,-70 0,0 0,0 0,0l446 0zm-352 -493c0,23 0,47 0,70 0,0 0,0 0,24l-469 0c0,-24 0,-24 0,-24 0,-23 0,-47 -23,-70l493 0zm-845 -329c0,47 -24,70 -47,94l516 0c-23,-23 -47,-47 -47,-94l-423 0zm728 0c0,47 -23,70 -47,94l587 0c-24,-23 -47,-47 -70,-94l-470 0zm775 0c0,47 -23,70 -47,94l563 0c-23,-23 -47,-47 -47,-94l-470 0zm775 0c0,47 -24,70 -47,94l211 0 0 -94 -164 0z"/>
   <path class="fil8" d="M2590 10456l0 974c0,111 -4,188 -11,233 -7,45 -29,91 -64,138 -35,47 -82,83 -140,107 -58,24 -126,37 -205,37 -87,0 -164,-14 -230,-43 -67,-29 -116,-66 -149,-112 -33,-46 -53,-95 -59,-146 -6,-51 -9,-159 -9,-324l0 -863 380 0 0 1093c0,64 3,104 10,122 7,18 21,27 41,27 23,0 39,-10 45,-29 7,-20 10,-66 10,-138l0 -1075 380 0z"/>
   <polygon id="1" class="fil8" points="2737,10456 3378,10456 3378,10747 3117,10747 3117,11025 3349,11025 3349,11301 3117,11301 3117,11913 2737,11913 "/>
   <path id="2" class="fil8" d="M3470 10456l382 0c103,0 182,8 238,24 55,16 97,40 125,70 28,31 47,68 57,111 10,44 15,111 15,202l0 127c0,93 -10,161 -29,203 -19,43 -54,76 -105,98 -51,23 -118,34 -201,34l-102 0 0 588 -380 0 0 -1457zm380 249l0 371c11,1 20,1 28,1 35,0 59,-9 72,-26 13,-17 20,-53 20,-107l0 -120c0,-50 -8,-82 -23,-97 -15,-15 -48,-22 -96,-22z"/>
   <path id="3" class="fil8" d="M4395 10456l377 0c119,0 209,9 271,28 61,18 111,56 149,113 38,57 57,148 57,274 0,85 -13,144 -40,178 -27,34 -80,59 -158,77 88,20 147,53 179,99 31,46 47,116 47,212l0 135c0,99 -11,171 -34,219 -22,47 -58,80 -107,97 -49,18 -150,26 -302,26l-438 0 0 -1457zm380 249l0 324c16,-1 28,-1 37,-1 36,0 60,-9 69,-27 10,-18 15,-71 15,-157 0,-46 -4,-78 -12,-96 -8,-18 -19,-30 -32,-35 -13,-5 -39,-7 -77,-8zm0 551l0 409c52,-2 86,-10 100,-25 14,-15 22,-52 22,-111l0 -136c0,-63 -6,-100 -19,-114 -13,-13 -47,-21 -102,-22z"/>
  </g>
 </g>
</svg>
